<?xml version="1.0" standalone="no"?>
<!DOCTYPE svg PUBLIC "-//W3C//DTD SVG 20010904//EN"
 "http://www.w3.org/TR/2001/REC-SVG-20010904/DTD/svg10.dtd">
<svg version="1.0" xmlns="http://www.w3.org/2000/svg"
 width="766.000000pt" height="485.000000pt" viewBox="0 0 766.000000 485.000000"
 preserveAspectRatio="xMidYMid meet">

<g transform="translate(0.000000,485.000000) scale(0.100000,-0.100000)"
fill="#000000" stroke="none">
<path d="M2685 4258 c-150 -77 -224 -216 -212 -398 8 -125 47 -221 135 -330
71 -88 112 -170 136 -271 l6 -26 -83 -8 c-118 -10 -299 -52 -388 -89 -13 -6
-20 5 -33 47 -53 170 -144 240 -346 268 -129 18 -193 60 -264 173 -34 54 -86
175 -86 202 0 29 -25 8 -50 -41 -21 -43 -25 -64 -25 -146 0 -90 2 -99 37 -171
69 -138 222 -254 392 -298 82 -21 211 -80 211 -97 0 -6 -42 -39 -94 -73 -54
-35 -136 -103 -193 -160 l-100 -98 -71 48 c-40 27 -94 54 -120 61 -63 15 -157
7 -232 -21 -131 -49 -168 -55 -237 -41 -77 16 -175 66 -257 132 -33 27 -66 49
-71 49 -13 0 -13 -58 1 -101 55 -174 205 -282 431 -311 87 -11 103 -10 209 12
63 13 145 26 182 28 l68 4 -40 -79 c-58 -111 -97 -230 -117 -347 -9 -55 -18
-106 -20 -113 -2 -9 -14 -9 -51 3 -109 34 -195 45 -253 33 -79 -16 -115 -38
-205 -124 -118 -114 -134 -120 -285 -119 -95 0 -143 5 -200 22 -41 11 -77 19
-79 16 -8 -8 18 -53 56 -95 169 -187 498 -182 749 11 76 59 195 120 240 123
l29 2 7 -82 c10 -120 67 -317 120 -411 26 -47 23 -62 -12 -62 -41 0 -157 -33
-207 -58 -22 -12 -58 -41 -79 -65 -38 -43 -46 -64 -93 -223 -27 -90 -69 -140
-158 -186 -66 -35 -164 -70 -231 -83 -104 -21 100 -104 224 -91 215 22 397
170 480 389 27 72 92 174 134 212 l22 20 42 -50 c223 -270 495 -435 822 -501
125 -25 425 -26 544 -1 423 89 772 347 946 701 24 49 44 96 44 103 0 28 19 11
22 -19 l3 -33 115 0 115 0 5 290 c5 248 8 296 24 332 22 51 77 90 148 103 29
6 56 14 61 19 4 4 6 50 5 102 -3 89 -4 94 -26 97 -38 6 -127 -26 -175 -63
l-46 -35 -3 42 -3 43 -108 3 c-102 3 -109 1 -114 -18 -6 -24 -23 -27 -23 -4 0
30 -100 209 -164 295 -74 98 -165 186 -275 267 -42 30 -78 57 -80 59 -2 1 18
22 44 45 27 24 56 50 65 58 9 8 32 38 51 65 30 44 34 59 37 125 3 63 -2 90
-27 168 -35 107 -38 142 -15 209 21 63 61 120 147 210 80 84 77 93 -32 76
-194 -30 -339 -187 -377 -406 -14 -83 -14 -93 5 -191 12 -57 21 -127 21 -156
0 -50 -18 -140 -27 -140 -3 0 -47 16 -97 37 -122 49 -250 81 -371 94 -55 6
-105 13 -112 15 -8 2 -5 18 11 51 34 71 66 180 66 226 0 67 -41 138 -132 231
-49 50 -97 107 -105 126 -20 44 -22 190 -4 251 7 24 22 66 32 93 11 27 16 53
12 57 -5 4 -26 -2 -48 -13z m-627 -1833 c108 -32 192 -134 192 -232 l0 -44
-112 3 -111 3 -12 34 c-6 19 -23 44 -38 55 -23 17 -31 18 -67 7 -41 -12 -72
-52 -62 -81 9 -30 58 -71 134 -116 99 -58 176 -127 199 -179 22 -47 24 -134 6
-186 -30 -87 -100 -155 -197 -193 -68 -27 -217 -24 -295 5 -111 41 -193 159
-183 262 l3 32 115 0 114 0 7 -35 c4 -20 21 -47 38 -62 80 -72 204 8 157 100
-14 26 -90 81 -166 120 -119 61 -176 148 -168 256 10 125 93 217 228 255 54
14 161 13 218 -4z m1771 4 c82 -14 148 -47 189 -94 49 -55 62 -97 62 -194 0
-89 -3 -106 -70 -431 -22 -107 -40 -198 -40 -202 0 -5 -54 -8 -121 -8 -110 0
-120 2 -115 18 3 9 12 53 20 97 9 44 27 134 41 200 63 299 61 361 -13 407 -29
18 -50 23 -102 22 -147 -3 -222 -91 -270 -319 -15 -70 -37 -173 -50 -230 -5
-22 -17 -75 -26 -117 l-16 -78 -115 0 c-115 0 -115 0 -109 23 4 12 14 56 22
97 9 41 20 91 24 110 4 19 19 91 34 160 15 69 33 152 40 185 20 83 44 198 60
275 l13 65 103 3 103 3 -6 -29 c-3 -17 -4 -32 -1 -35 3 -3 27 8 54 25 86 54
170 67 289 47z m-1242 -31 c-4 -23 -61 -294 -99 -478 -22 -111 -18 -167 18
-210 71 -84 248 -55 323 54 40 57 60 126 122 414 l52 242 115 0 c105 0 114 -1
107 -17 -3 -10 -10 -38 -15 -63 -5 -25 -25 -121 -45 -215 -20 -93 -52 -244
-71 -335 -19 -91 -39 -185 -44 -210 -16 -84 -11 -80 -122 -80 l-100 0 7 30 c8
36 5 37 -43 5 -63 -42 -120 -57 -222 -58 -112 -2 -168 12 -231 58 -71 51 -99
118 -99 237 0 55 9 136 21 198 12 58 25 123 29 145 4 22 19 99 34 170 14 72
26 131 26 133 0 1 55 2 121 2 121 0 121 0 116 -22z"/>
<path d="M6455 2721 c-3 -2 -5 -82 -5 -177 0 -158 -7 -204 -26 -173 -14 23
-120 60 -200 70 -214 26 -413 -60 -519 -227 -48 -75 -67 -137 -73 -236 -7
-139 41 -259 145 -362 107 -105 238 -152 398 -143 92 5 185 32 237 68 35 26
38 24 38 -16 l0 -35 115 0 115 0 -2 618 -3 617 -108 0 c-59 1 -110 -1 -112 -4z
m-168 -524 c49 -23 92 -66 122 -120 16 -29 21 -55 21 -118 0 -98 -18 -137 -90
-202 -39 -35 -63 -48 -106 -57 -110 -23 -219 12 -291 94 -113 128 -70 318 90
403 69 36 179 37 254 0z"/>
<path d="M6830 2691 c-103 -55 -105 -190 -4 -248 139 -80 307 71 221 198 -44
65 -146 89 -217 50z m159 -53 c45 -46 44 -97 -3 -144 -28 -28 -42 -34 -76 -34
-34 0 -48 6 -76 34 -47 47 -48 101 -3 145 26 26 38 31 79 31 40 0 52 -5 79
-32z"/>
<path d="M6849 2620 c-1 -11 -2 -33 -2 -50 0 -72 3 -80 23 -80 15 0 20 7 20
25 0 16 6 25 15 25 9 0 20 -11 25 -25 6 -15 17 -25 30 -25 22 0 26 20 10 50
-8 14 -7 25 2 40 22 35 0 55 -66 58 -50 3 -56 1 -57 -18z m79 -28 c2 -7 -6
-12 -17 -12 -21 0 -27 11 -14 24 9 9 26 2 31 -12z"/>
<path d="M4995 2464 c-156 -22 -292 -106 -369 -227 -48 -75 -68 -140 -74 -239
-3 -70 0 -99 17 -152 53 -165 184 -289 365 -343 68 -21 215 -21 284 0 198 60
337 211 363 393 11 80 5 154 -13 154 -6 0 -55 -24 -110 -52 -77 -41 -100 -59
-104 -78 -24 -110 -90 -174 -225 -221 -56 -19 -140 -4 -196 35 -27 18 -48 39
-48 46 0 6 52 40 115 74 63 34 156 84 205 110 50 27 119 65 155 84 154 82 190
104 190 113 0 22 -70 117 -122 165 -61 58 -104 82 -196 113 -63 20 -181 33
-237 25z m175 -231 c30 -16 55 -33 57 -38 2 -6 -18 -21 -44 -35 -27 -14 -124
-66 -218 -117 -98 -53 -174 -88 -179 -83 -30 30 11 164 68 219 82 79 220 102
316 54z"/>
<path d="M4554 1415 c-37 -16 -91 -76 -100 -109 -3 -14 -4 -74 -2 -135 l3
-110 35 -36 c66 -69 -1 -65 1097 -65 1081 0 1019 -3 1081 54 44 40 55 74 56
181 1 107 -9 139 -56 181 -62 57 1 54 -1085 53 -817 0 -1004 -3 -1029 -14z
m2036 -71 c45 -27 60 -63 60 -149 0 -48 -5 -87 -15 -105 -33 -63 22 -60 -1050
-60 -1072 0 -1017 -3 -1050 60 -20 39 -20 171 0 210 32 62 -24 59 1048 60 889
0 981 -2 1007 -16z"/>
<path d="M4650 1310 c-26 -26 -27 -91 -2 -111 9 -8 34 -22 55 -32 41 -18 48
-41 17 -57 -16 -8 -23 -7 -37 10 -22 25 -63 27 -63 2 0 -50 66 -84 122 -63 35
13 60 61 52 100 -8 37 -19 47 -70 65 -27 9 -39 19 -39 32 0 24 35 31 47 10 13
-23 58 -21 58 2 0 54 -99 83 -140 42z"/>
<path d="M4907 1323 c-10 -16 -107 -248 -107 -255 0 -5 14 -8 30 -8 23 0 33 6
40 25 8 22 15 25 60 25 44 0 52 -3 62 -25 10 -22 16 -24 79 -24 l68 0 3 75 3
75 53 -75 c45 -66 56 -76 82 -76 l31 0 -3 133 -3 132 -27 3 -28 3 0 -70 c0
-74 -11 -96 -31 -59 -7 13 -30 47 -51 76 -28 38 -45 52 -63 52 l-25 0 0 -126
c0 -86 -3 -125 -11 -122 -6 2 -24 37 -41 78 -16 41 -38 95 -48 120 -14 34 -24
46 -43 48 -14 2 -28 -1 -30 -5z m43 -135 c0 -11 -8 -18 -20 -18 -23 0 -25 12
-9 42 9 17 13 18 20 7 5 -8 9 -22 9 -31z"/>
<path d="M5350 1195 l0 -135 86 0 c84 0 87 1 119 33 44 44 54 100 27 160 -25
57 -66 77 -161 77 l-71 0 0 -135z m162 55 c10 -13 18 -39 18 -61 0 -52 -27
-79 -80 -79 l-40 0 0 86 0 87 42 -6 c27 -4 49 -14 60 -27z"/>
<path d="M5660 1253 c-17 -43 -43 -102 -56 -132 -13 -29 -24 -55 -24 -57 0 -2
15 -4 34 -4 28 0 35 4 40 25 6 23 11 25 60 25 46 0 54 -3 64 -24 11 -24 58
-41 68 -24 3 5 -1 23 -9 41 -8 18 -29 68 -47 112 -42 108 -43 110 -72 113 -23
3 -29 -4 -58 -75z m75 -60 c5 -20 3 -23 -19 -23 -30 0 -29 0 -16 36 11 29 23
24 35 -13z"/>
<path d="M5867 1323 c-4 -3 -7 -64 -7 -135 l0 -128 75 0 c73 0 75 1 75 25 0
23 -4 25 -45 25 l-45 0 0 110 c0 109 0 110 -23 110 -13 0 -27 -3 -30 -7z"/>
<path d="M6040 1195 l0 -135 63 0 c58 0 65 2 75 25 10 22 18 25 62 25 45 0 52
-3 60 -25 7 -19 17 -25 40 -25 16 0 30 3 30 8 0 4 -23 64 -51 135 -48 119 -53
127 -78 127 -25 0 -30 -8 -71 -107 -68 -169 -70 -169 -70 -20 l0 127 -30 0
-30 0 0 -135z m214 9 c10 -26 7 -34 -14 -34 -13 0 -20 7 -20 18 0 33 23 44 34
16z"/>
<path d="M6412 1310 c-15 -14 -22 -33 -22 -59 0 -42 13 -57 73 -84 40 -18 48
-41 18 -56 -15 -8 -24 -5 -45 14 -45 42 -76 7 -38 -43 12 -15 33 -25 60 -29
36 -5 45 -2 72 25 52 53 35 119 -38 143 -41 13 -53 25 -45 46 7 18 39 17 47
-2 9 -23 56 -19 56 5 0 31 -39 60 -80 60 -23 0 -44 -8 -58 -20z"/>
</g>
</svg>
